<svg xmlns="http://www.w3.org/2000/svg" viewBox="0 0 512 512" shape-rendering="crispEdges"><title>A slice of pizza</title><rect width="512" height="512" fill="#0a0a0d"/><g transform="scale(16)"><path fill="#23190e" d="M12 1h8v1h-8zM9 2h14v1h-14zM8 3h16v1h-16zM2 9h2v1h-2zM2 10h3v1h-3zM29 10h1v1h-1zM2 11h3v1h-3zM28 11h2v1h-2zM1 12h4v1h-4zM27 12h4v1h-4zM1 13h3v1h-3zM28 13h3v1h-3zM1 14h3v1h-3zM28 14h3v1h-3zM1 15h3v1h-3zM28 15h3v1h-3zM1 16h3v1h-3zM28 16h3v1h-3zM1 17h3v1h-3zM28 17h3v1h-3zM1 18h3v1h-3zM28 18h3v1h-3zM1 19h4v1h-4zM27 19h4v1h-4zM2 20h3v1h-3zM27 20h3v1h-3zM2 21h3v1h-3zM27 21h3v1h-3zM2 22h4v1h-4zM26 22h1v1h-1zM28 22h2v1h-2zM3 23h4v1h-4zM25 23h2v1h-2zM28 23h1v1h-1zM4 24h4v1h-4zM24 24h1v1h-1zM4 25h5v1h-5zM23 25h4v1h-4zM5 26h5v1h-5zM22 26h5v1h-5zM6 27h7v1h-7zM20 27h6v1h-6zM8 28h7v1h-7zM19 28h5v1h-5zM9 29h7v1h-7zM19 29h4v1h-4zM12 30h5v1h-5zM18 30h2v1h-2z"/><path fill="#050507" d="M5 4h22v1h-22zM4 5h1v1h-1zM27 5h1v1h-1zM3 6h1v1h-1zM28 6h1v1h-1zM3 7h1v1h-1zM28 7h1v1h-1zM3 8h1v1h-1zM28 8h1v1h-1zM4 9h1v1h-1zM27 9h1v1h-1zM5 10h2v1h-2zM25 10h2v1h-2zM6 11h1v1h-1zM25 11h1v1h-1zM7 12h1v1h-1zM24 12h1v1h-1zM7 13h1v1h-1zM24 13h1v1h-1zM8 14h1v1h-1zM23 14h1v1h-1zM8 15h1v1h-1zM23 15h1v1h-1zM9 16h1v1h-1zM22 16h1v1h-1zM9 17h1v1h-1zM23 17h1v1h-1zM10 18h1v1h-1zM21 18h2v1h-2zM11 19h1v1h-1zM21 19h1v1h-1zM11 20h1v1h-1zM21 20h1v1h-1zM12 21h1v1h-1zM20 21h1v1h-1zM12 22h1v1h-1zM20 22h1v1h-1zM13 23h1v1h-1zM19 23h1v1h-1zM13 24h1v1h-1zM19 24h1v1h-1zM14 25h1v1h-1zM18 25h1v1h-1zM14 26h1v1h-1zM18 26h1v1h-1zM15 27h1v1h-1zM17 27h1v1h-1zM15 28h1v1h-1zM17 28h1v1h-1zM16 29h1v1h-1z"/><path fill="#d9893a" d="M5 5h22v1h-22zM4 6h2v1h-2zM26 6h2v1h-2zM4 7h2v1h-2zM26 7h2v1h-2zM4 8h24v1h-24zM5 9h2v1h-2zM26 9h1v1h-1z"/><path fill="#ffe9c4" d="M6 6h20v1h-20zM6 7h20v1h-20zM11 12h1v1h-1zM19 13h1v1h-1zM16 24h1v1h-1z"/><path fill="#19130e" d="M29 7h1v1h-1zM29 8h1v1h-1zM28 9h2v1h-2zM27 10h2v1h-2zM26 11h2v1h-2zM25 12h2v1h-2zM25 13h1v1h-1zM24 14h2v1h-2zM24 15h1v1h-1zM23 16h2v1h-2zM23 18h2v1h-2zM22 19h2v1h-2zM22 20h1v1h-1zM21 21h2v1h-2zM21 22h1v1h-1zM20 23h2v1h-2zM20 24h1v1h-1zM19 25h2v1h-2zM19 26h1v1h-1zM18 27h2v1h-2zM18 28h1v1h-1zM17 29h2v1h-2zM17 30h1v1h-1z"/><path fill="#9a5320" d="M7 9h19v1h-19z"/><path fill="#ffe14d" d="M7 10h10v1h-10zM19 10h5v1h-5zM7 11h2v1h-2zM10 11h1v1h-1zM13 11h4v1h-4zM18 11h1v1h-1zM21 11h2v1h-2zM8 12h1v1h-1zM10 12h1v1h-1zM14 12h4v1h-4zM8 13h1v1h-1zM14 13h4v1h-4zM23 13h1v1h-1zM9 14h1v1h-1zM13 14h5v1h-5zM22 14h1v1h-1zM9 15h10v1h-10zM21 15h2v1h-2zM10 16h3v1h-3zM14 16h4v1h-4zM20 16h2v1h-2zM10 17h4v1h-4zM19 17h3v1h-3zM11 18h2v1h-2zM18 18h3v1h-3zM12 19h1v1h-1zM18 19h3v1h-3zM12 20h2v1h-2zM17 20h4v1h-4zM13 21h6v1h-6zM13 22h6v1h-6zM14 23h2v1h-2zM14 24h2v1h-2zM15 25h1v1h-1zM15 26h3v1h-3zM16 27h1v1h-1zM16 28h1v1h-1z"/><path fill="#e0a800" d="M17 10h2v1h-2zM24 10h1v1h-1zM17 11h1v1h-1zM23 11h2v1h-2zM22 12h2v1h-2zM22 13h1v1h-1zM18 16h2v1h-2zM17 17h2v1h-2zM19 22h1v1h-1zM18 23h1v1h-1zM18 24h1v1h-1z"/><path fill="#34230f" d="M5 11h1v1h-1zM5 12h2v1h-2zM4 13h3v1h-3zM26 13h2v1h-2zM4 14h4v1h-4zM26 14h2v1h-2zM4 15h4v1h-4zM25 15h3v1h-3zM4 16h5v1h-5zM25 16h3v1h-3zM4 17h5v1h-5zM24 17h4v1h-4zM4 18h6v1h-6zM25 18h3v1h-3zM5 19h6v1h-6zM24 19h3v1h-3zM5 20h6v1h-6zM23 20h4v1h-4zM5 21h7v1h-7zM23 21h4v1h-4zM6 22h6v1h-6zM22 22h4v1h-4zM7 23h6v1h-6zM22 23h3v1h-3zM8 24h5v1h-5zM21 24h3v1h-3zM9 25h5v1h-5zM21 25h2v1h-2zM10 26h4v1h-4zM20 26h2v1h-2zM13 27h2v1h-2z"/><path fill="#6fb814" d="M9 11h1v1h-1zM13 16h1v1h-1zM22 17h1v1h-1zM19 21h1v1h-1z"/><path fill="#ff4d6d" d="M11 11h2v1h-2zM19 11h2v1h-2zM9 12h1v1h-1zM12 12h2v1h-2zM18 12h4v1h-4zM9 13h5v1h-5zM18 13h1v1h-1zM20 13h2v1h-2zM10 14h3v1h-3zM18 14h4v1h-4zM19 15h2v1h-2zM14 17h3v1h-3zM13 18h2v1h-2zM16 18h2v1h-2zM13 19h2v1h-2zM16 19h2v1h-2zM14 20h3v1h-3zM16 23h2v1h-2zM17 24h1v1h-1zM16 25h2v1h-2z"/><path fill="#c21f45" d="M15 18h1v1h-1zM15 19h1v1h-1z"/><path fill="#915c14" d="M27 22h1v1h-1zM27 23h1v1h-1zM25 24h5v1h-5zM27 25h1v1h-1zM27 26h1v1h-1z"/></g></svg>
